<mxfile host="app.diagrams.net" modified="2023-05-11T02:31:32.469Z" agent="Mozilla/5.0 (Windows NT 10.0; Win64; x64) AppleWebKit/537.36 (KHTML, like Gecko) Chrome/113.0.0.0 Safari/537.36" etag="1fmC0r-8jMIJPBlDhY53" version="21.2.9" type="github">
  <diagram name="Page-1" id="zUVxuTTTeXblqwknsvPL">
    <mxGraphModel dx="724" dy="401" grid="1" gridSize="10" guides="1" tooltips="1" connect="1" arrows="1" fold="1" page="1" pageScale="1" pageWidth="850" pageHeight="1100" math="0" shadow="0">
      <root>
        <mxCell id="0" />
        <mxCell id="1" parent="0" />
        <mxCell id="_IunMX-wSMDddo4LWzVe-1" value="" style="rounded=0;whiteSpace=wrap;html=1;" vertex="1" parent="1">
          <mxGeometry x="40" y="80" width="250" height="100" as="geometry" />
        </mxCell>
        <mxCell id="_IunMX-wSMDddo4LWzVe-2" value="" style="rounded=0;whiteSpace=wrap;html=1;" vertex="1" parent="1">
          <mxGeometry x="40" y="80" width="120" height="100" as="geometry" />
        </mxCell>
        <mxCell id="_IunMX-wSMDddo4LWzVe-5" value="" style="rounded=0;whiteSpace=wrap;html=1;" vertex="1" parent="1">
          <mxGeometry x="195" y="120" width="70" height="10" as="geometry" />
        </mxCell>
        <mxCell id="_IunMX-wSMDddo4LWzVe-7" value="" style="rounded=0;whiteSpace=wrap;html=1;" vertex="1" parent="1">
          <mxGeometry x="195" y="140" width="70" height="10" as="geometry" />
        </mxCell>
        <mxCell id="_IunMX-wSMDddo4LWzVe-8" value="" style="rounded=0;whiteSpace=wrap;html=1;" vertex="1" parent="1">
          <mxGeometry x="210" y="155" width="40" height="10" as="geometry" />
        </mxCell>
        <mxCell id="_IunMX-wSMDddo4LWzVe-9" value="Bem vindo" style="text;html=1;strokeColor=none;fillColor=none;align=center;verticalAlign=middle;whiteSpace=wrap;rounded=0;" vertex="1" parent="1">
          <mxGeometry x="195" y="85" width="70" height="30" as="geometry" />
        </mxCell>
        <mxCell id="_IunMX-wSMDddo4LWzVe-10" value="&lt;font style=&quot;font-size: 5px;&quot;&gt;Entrar&lt;/font&gt;" style="text;html=1;strokeColor=none;fillColor=none;align=center;verticalAlign=middle;whiteSpace=wrap;rounded=0;" vertex="1" parent="1">
          <mxGeometry x="220" y="150" width="20" height="10" as="geometry" />
        </mxCell>
        <mxCell id="_IunMX-wSMDddo4LWzVe-11" value="" style="rounded=0;whiteSpace=wrap;html=1;" vertex="1" parent="1">
          <mxGeometry x="400" y="70" width="270" height="120" as="geometry" />
        </mxCell>
        <mxCell id="_IunMX-wSMDddo4LWzVe-13" value="" style="endArrow=classic;html=1;rounded=0;" edge="1" parent="1">
          <mxGeometry width="50" height="50" relative="1" as="geometry">
            <mxPoint x="300" y="130" as="sourcePoint" />
            <mxPoint x="360" y="130" as="targetPoint" />
          </mxGeometry>
        </mxCell>
        <mxCell id="_IunMX-wSMDddo4LWzVe-15" value="" style="rounded=0;whiteSpace=wrap;html=1;" vertex="1" parent="1">
          <mxGeometry x="604" y="95" width="40" height="10" as="geometry" />
        </mxCell>
        <mxCell id="_IunMX-wSMDddo4LWzVe-16" value="&lt;font style=&quot;font-size: 4px;&quot;&gt;TEAM BLACK CENTRO DE TREINAMENTO&lt;/font&gt;" style="text;html=1;strokeColor=none;fillColor=none;align=center;verticalAlign=middle;whiteSpace=wrap;rounded=0;" vertex="1" parent="1">
          <mxGeometry x="470" y="75" width="90" height="10" as="geometry" />
        </mxCell>
        <mxCell id="_IunMX-wSMDddo4LWzVe-17" value="&lt;font style=&quot;font-size: 4px;&quot;&gt;Adicionar cliente&lt;/font&gt;" style="text;html=1;strokeColor=none;fillColor=none;align=center;verticalAlign=middle;whiteSpace=wrap;rounded=0;" vertex="1" parent="1">
          <mxGeometry x="604" y="95" width="40" as="geometry" />
        </mxCell>
        <mxCell id="_IunMX-wSMDddo4LWzVe-59" value="" style="childLayout=tableLayout;recursiveResize=0;shadow=0;fillColor=none;" vertex="1" parent="1">
          <mxGeometry x="440" y="120" width="90" height="45" as="geometry" />
        </mxCell>
        <mxCell id="_IunMX-wSMDddo4LWzVe-60" value="" style="shape=tableRow;horizontal=0;startSize=0;swimlaneHead=0;swimlaneBody=0;top=0;left=0;bottom=0;right=0;dropTarget=0;collapsible=0;recursiveResize=0;expand=0;fontStyle=0;fillColor=none;strokeColor=inherit;" vertex="1" parent="_IunMX-wSMDddo4LWzVe-59">
          <mxGeometry width="90" height="15" as="geometry" />
        </mxCell>
        <mxCell id="_IunMX-wSMDddo4LWzVe-61" value="&lt;font style=&quot;font-size: 5px;&quot;&gt;Cliente&lt;/font&gt;" style="connectable=0;recursiveResize=0;strokeColor=inherit;fillColor=none;align=center;whiteSpace=wrap;html=1;" vertex="1" parent="_IunMX-wSMDddo4LWzVe-60">
          <mxGeometry width="27" height="15" as="geometry">
            <mxRectangle width="27" height="15" as="alternateBounds" />
          </mxGeometry>
        </mxCell>
        <mxCell id="_IunMX-wSMDddo4LWzVe-62" value="&lt;font style=&quot;font-size: 5px;&quot;&gt;CPF&lt;/font&gt;" style="connectable=0;recursiveResize=0;strokeColor=inherit;fillColor=none;align=center;whiteSpace=wrap;html=1;" vertex="1" parent="_IunMX-wSMDddo4LWzVe-60">
          <mxGeometry x="27" width="33" height="15" as="geometry">
            <mxRectangle width="33" height="15" as="alternateBounds" />
          </mxGeometry>
        </mxCell>
        <mxCell id="_IunMX-wSMDddo4LWzVe-63" value="&lt;font style=&quot;font-size: 5px;&quot;&gt;Modalidade&lt;/font&gt;" style="connectable=0;recursiveResize=0;strokeColor=inherit;fillColor=none;align=center;whiteSpace=wrap;html=1;" vertex="1" parent="_IunMX-wSMDddo4LWzVe-60">
          <mxGeometry x="60" width="30" height="15" as="geometry">
            <mxRectangle width="30" height="15" as="alternateBounds" />
          </mxGeometry>
        </mxCell>
        <mxCell id="_IunMX-wSMDddo4LWzVe-64" style="shape=tableRow;horizontal=0;startSize=0;swimlaneHead=0;swimlaneBody=0;top=0;left=0;bottom=0;right=0;dropTarget=0;collapsible=0;recursiveResize=0;expand=0;fontStyle=0;fillColor=none;strokeColor=inherit;" vertex="1" parent="_IunMX-wSMDddo4LWzVe-59">
          <mxGeometry y="15" width="90" height="15" as="geometry" />
        </mxCell>
        <mxCell id="_IunMX-wSMDddo4LWzVe-65" value="" style="connectable=0;recursiveResize=0;strokeColor=inherit;fillColor=none;align=center;whiteSpace=wrap;html=1;" vertex="1" parent="_IunMX-wSMDddo4LWzVe-64">
          <mxGeometry width="27" height="15" as="geometry">
            <mxRectangle width="27" height="15" as="alternateBounds" />
          </mxGeometry>
        </mxCell>
        <mxCell id="_IunMX-wSMDddo4LWzVe-66" value="" style="connectable=0;recursiveResize=0;strokeColor=inherit;fillColor=none;align=center;whiteSpace=wrap;html=1;" vertex="1" parent="_IunMX-wSMDddo4LWzVe-64">
          <mxGeometry x="27" width="33" height="15" as="geometry">
            <mxRectangle width="33" height="15" as="alternateBounds" />
          </mxGeometry>
        </mxCell>
        <mxCell id="_IunMX-wSMDddo4LWzVe-67" value="" style="connectable=0;recursiveResize=0;strokeColor=inherit;fillColor=none;align=center;whiteSpace=wrap;html=1;" vertex="1" parent="_IunMX-wSMDddo4LWzVe-64">
          <mxGeometry x="60" width="30" height="15" as="geometry">
            <mxRectangle width="30" height="15" as="alternateBounds" />
          </mxGeometry>
        </mxCell>
        <mxCell id="_IunMX-wSMDddo4LWzVe-68" style="shape=tableRow;horizontal=0;startSize=0;swimlaneHead=0;swimlaneBody=0;top=0;left=0;bottom=0;right=0;dropTarget=0;collapsible=0;recursiveResize=0;expand=0;fontStyle=0;fillColor=none;strokeColor=inherit;" vertex="1" parent="_IunMX-wSMDddo4LWzVe-59">
          <mxGeometry y="30" width="90" height="15" as="geometry" />
        </mxCell>
        <mxCell id="_IunMX-wSMDddo4LWzVe-69" value="" style="connectable=0;recursiveResize=0;strokeColor=inherit;fillColor=none;align=center;whiteSpace=wrap;html=1;" vertex="1" parent="_IunMX-wSMDddo4LWzVe-68">
          <mxGeometry width="27" height="15" as="geometry">
            <mxRectangle width="27" height="15" as="alternateBounds" />
          </mxGeometry>
        </mxCell>
        <mxCell id="_IunMX-wSMDddo4LWzVe-70" value="" style="connectable=0;recursiveResize=0;strokeColor=inherit;fillColor=none;align=center;whiteSpace=wrap;html=1;" vertex="1" parent="_IunMX-wSMDddo4LWzVe-68">
          <mxGeometry x="27" width="33" height="15" as="geometry">
            <mxRectangle width="33" height="15" as="alternateBounds" />
          </mxGeometry>
        </mxCell>
        <mxCell id="_IunMX-wSMDddo4LWzVe-71" value="" style="connectable=0;recursiveResize=0;strokeColor=inherit;fillColor=none;align=center;whiteSpace=wrap;html=1;" vertex="1" parent="_IunMX-wSMDddo4LWzVe-68">
          <mxGeometry x="60" width="30" height="15" as="geometry">
            <mxRectangle width="30" height="15" as="alternateBounds" />
          </mxGeometry>
        </mxCell>
        <mxCell id="_IunMX-wSMDddo4LWzVe-78" style="shape=tableRow;horizontal=0;startSize=0;swimlaneHead=0;swimlaneBody=0;top=0;left=0;bottom=0;right=0;dropTarget=0;collapsible=0;recursiveResize=0;expand=0;fontStyle=0;fillColor=none;strokeColor=inherit;" vertex="1" parent="1">
          <mxGeometry x="550" y="120" width="100" height="15" as="geometry" />
        </mxCell>
        <mxCell id="_IunMX-wSMDddo4LWzVe-80" value="&lt;font style=&quot;font-size: 5px;&quot;&gt;Data vencimento&lt;/font&gt;" style="connectable=0;recursiveResize=0;strokeColor=inherit;fillColor=none;align=center;whiteSpace=wrap;html=1;" vertex="1" parent="_IunMX-wSMDddo4LWzVe-78">
          <mxGeometry x="20" width="50" height="15" as="geometry">
            <mxRectangle width="32" height="15" as="alternateBounds" />
          </mxGeometry>
        </mxCell>
        <mxCell id="_IunMX-wSMDddo4LWzVe-79" value="&lt;font style=&quot;font-size: 5px;&quot;&gt;Data pagamento&lt;/font&gt;" style="connectable=0;recursiveResize=0;strokeColor=inherit;fillColor=none;align=center;whiteSpace=wrap;html=1;" vertex="1" parent="1">
          <mxGeometry x="530" y="120" width="40" height="15" as="geometry">
            <mxRectangle width="34" height="15" as="alternateBounds" />
          </mxGeometry>
        </mxCell>
        <mxCell id="_IunMX-wSMDddo4LWzVe-81" value="&lt;font style=&quot;font-size: 5px;&quot;&gt;Ações&lt;/font&gt;" style="connectable=0;recursiveResize=0;strokeColor=inherit;fillColor=none;align=center;whiteSpace=wrap;html=1;" vertex="1" parent="1">
          <mxGeometry x="620" y="120" width="24" height="15" as="geometry">
            <mxRectangle width="34" height="15" as="alternateBounds" />
          </mxGeometry>
        </mxCell>
        <mxCell id="_IunMX-wSMDddo4LWzVe-82" style="shape=tableRow;horizontal=0;startSize=0;swimlaneHead=0;swimlaneBody=0;top=0;left=0;bottom=0;right=0;dropTarget=0;collapsible=0;recursiveResize=0;expand=0;fontStyle=0;fillColor=none;strokeColor=inherit;" vertex="1" parent="1">
          <mxGeometry x="480" y="170" width="90" height="15" as="geometry" />
        </mxCell>
        <mxCell id="_IunMX-wSMDddo4LWzVe-86" value="" style="connectable=0;recursiveResize=0;strokeColor=inherit;fillColor=none;align=center;whiteSpace=wrap;html=1;" vertex="1" parent="1">
          <mxGeometry x="530" y="135" width="40" height="15" as="geometry">
            <mxRectangle width="34" height="15" as="alternateBounds" />
          </mxGeometry>
        </mxCell>
        <mxCell id="_IunMX-wSMDddo4LWzVe-87" value="" style="connectable=0;recursiveResize=0;strokeColor=inherit;fillColor=none;align=center;whiteSpace=wrap;html=1;" vertex="1" parent="1">
          <mxGeometry x="530" y="150" width="40" height="15" as="geometry">
            <mxRectangle width="34" height="15" as="alternateBounds" />
          </mxGeometry>
        </mxCell>
        <mxCell id="_IunMX-wSMDddo4LWzVe-89" value="" style="connectable=0;recursiveResize=0;strokeColor=inherit;fillColor=none;align=center;whiteSpace=wrap;html=1;" vertex="1" parent="1">
          <mxGeometry x="570" y="135" width="50" height="15" as="geometry">
            <mxRectangle width="32" height="15" as="alternateBounds" />
          </mxGeometry>
        </mxCell>
        <mxCell id="_IunMX-wSMDddo4LWzVe-90" value="" style="connectable=0;recursiveResize=0;strokeColor=inherit;fillColor=none;align=center;whiteSpace=wrap;html=1;" vertex="1" parent="1">
          <mxGeometry x="570" y="150" width="50" height="15" as="geometry">
            <mxRectangle width="32" height="15" as="alternateBounds" />
          </mxGeometry>
        </mxCell>
        <mxCell id="_IunMX-wSMDddo4LWzVe-91" value="" style="connectable=0;recursiveResize=0;strokeColor=inherit;fillColor=none;align=center;whiteSpace=wrap;html=1;" vertex="1" parent="1">
          <mxGeometry x="620" y="135" width="24" height="15" as="geometry">
            <mxRectangle width="34" height="15" as="alternateBounds" />
          </mxGeometry>
        </mxCell>
        <mxCell id="_IunMX-wSMDddo4LWzVe-92" value="" style="connectable=0;recursiveResize=0;strokeColor=inherit;fillColor=none;align=center;whiteSpace=wrap;html=1;" vertex="1" parent="1">
          <mxGeometry x="620" y="150" width="24" height="15" as="geometry">
            <mxRectangle width="34" height="15" as="alternateBounds" />
          </mxGeometry>
        </mxCell>
      </root>
    </mxGraphModel>
  </diagram>
</mxfile>
